<svg width="21" height="29" viewBox="0 0 21 29" fill="none" xmlns="http://www.w3.org/2000/svg">
<path d="M18 12.5C18 18.3333 10.5 23.3333 10.5 23.3333C10.5 23.3333 3 18.3333 3 12.5C3 10.5109 3.79018 8.60322 5.1967 7.1967C6.60322 5.79018 8.51088 5 10.5 5C12.4891 5 14.3968 5.79018 15.8033 7.1967C17.2098 8.60322 18 10.5109 18 12.5Z" stroke="#5C6F80" stroke-width="2" stroke-linecap="round" stroke-linejoin="round"/>
<path d="M10.5 15C11.8807 15 13 13.8807 13 12.5C13 11.1193 11.8807 10 10.5 10C9.11929 10 8 11.1193 8 12.5C8 13.8807 9.11929 15 10.5 15Z" stroke="#5C6F80" stroke-width="2" stroke-linecap="round" stroke-linejoin="round"/>
</svg>
