<svg width="21" height="21" viewBox="0 0 21 21" fill="none" xmlns="http://www.w3.org/2000/svg">
<path d="M18.8332 14.5999V17.0999C18.8341 17.332 18.7866 17.5617 18.6936 17.7744C18.6006 17.987 18.4643 18.1779 18.2933 18.3348C18.1222 18.4917 17.9203 18.6112 17.7005 18.6855C17.4806 18.7599 17.2477 18.7875 17.0165 18.7666C14.4522 18.488 11.989 17.6117 9.82486 16.2083C7.81139 14.9288 6.10431 13.2217 4.82486 11.2083C3.41651 9.03425 2.54007 6.55908 2.26653 3.98325C2.2457 3.75281 2.27309 3.52055 2.34695 3.30127C2.4208 3.08199 2.53951 2.88049 2.6955 2.7096C2.8515 2.53871 3.04137 2.40218 3.25302 2.30869C3.46468 2.2152 3.69348 2.1668 3.92486 2.16658H6.42486C6.82928 2.1626 7.22136 2.30582 7.528 2.56953C7.83464 2.83324 8.03493 3.19946 8.09153 3.59992C8.19705 4.39997 8.39274 5.18552 8.67486 5.94158C8.78698 6.23985 8.81125 6.56401 8.74478 6.87565C8.67832 7.18729 8.52392 7.47334 8.29986 7.69992L7.24153 8.75825C8.42783 10.8445 10.1552 12.572 12.2415 13.7583L13.2999 12.6999C13.5264 12.4759 13.8125 12.3215 14.1241 12.255C14.4358 12.1885 14.7599 12.2128 15.0582 12.3249C15.8143 12.607 16.5998 12.8027 17.3999 12.9083C17.8047 12.9654 18.1744 13.1693 18.4386 13.4812C18.7029 13.7931 18.8433 14.1912 18.8332 14.5999Z" stroke="#5C6F80" stroke-width="2" stroke-linecap="round" stroke-linejoin="round"/>
</svg>
